<?xml version="1.0" encoding="utf-8"?>
<!-- Generator: Adobe Illustrator 18.1.1, SVG Export Plug-In . SVG Version: 6.00 Build 0)  -->
<!DOCTYPE svg PUBLIC "-//W3C//DTD SVG 1.1//EN" "http://www.w3.org/Graphics/SVG/1.1/DTD/svg11.dtd">
<svg version="1.1" xmlns="http://www.w3.org/2000/svg" xmlns:xlink="http://www.w3.org/1999/xlink" x="0px" y="0px"
	 viewBox="0 0 30 30" enable-background="new 0 0 30 30" xml:space="preserve">
<g id="Layer_1" display="none">
	<path display="inline" fill="#00AEEF" d="M22,35.4H3.6c-6.5,0-11.7-5.3-11.7-11.7V4.9c0-6.5,5.3-11.7,11.7-11.7H22
		c6.5,0,11.7,5.3,11.7,11.7v18.8C33.7,30.1,28.5,35.4,22,35.4z"/>
</g>
<g id="Layer_2" display="none">
	<g display="inline">
		<g>
			<g>
				<path fill-rule="evenodd" clip-rule="evenodd" fill="#FFFFFF" d="M6,7.2c-0.6,0-1,0.4-1,1v1.5c0,0.6,0.4,1,1,1h18
					c0.5,0,1-0.4,1-1V8.2c0-0.6-0.5-1-1-1H6z M5,15.7c0,0.5,0.4,1,1,1h18c0.5,0,1-0.5,1-1v-1.5c0-0.6-0.5-1-1-1H6c-0.6,0-1,0.4-1,1
					V15.7z M5,21.8c0,0.5,0.4,1,1,1h18c0.5,0,1-0.5,1-1v-1.5c0-0.5-0.5-1-1-1H6c-0.6,0-1,0.5-1,1V21.8z"/>
				<path fill-rule="evenodd" clip-rule="evenodd" fill="#FFFFFF" d="M6,7.2c-0.6,0-1,0.4-1,1v1.5c0,0.6,0.4,1,1,1h18
					c0.5,0,1-0.4,1-1V8.2c0-0.6-0.5-1-1-1H6z M5,15.7c0,0.5,0.4,1,1,1h18c0.5,0,1-0.5,1-1v-1.5c0-0.6-0.5-1-1-1H6c-0.6,0-1,0.4-1,1
					V15.7z M5,21.8c0,0.5,0.4,1,1,1h18c0.5,0,1-0.5,1-1v-1.5c0-0.5-0.5-1-1-1H6c-0.6,0-1,0.5-1,1V21.8z"/>
			</g>
		</g>
	</g>
</g>
<g id="Layer_4">
	<g>
		<g>
			<g>
				<path fill="#FFFFFF" d="M15,4.2c-4.1,0-7.5,3.4-7.5,7.5c0,6.9,6.1,12.7,6.1,12.7c0.8,0.8,2.1,0.7,2.8-0.1c0,0,6.1-6.5,6.1-12.7
					C22.5,7.6,19.1,4.2,15,4.2z M15,14.3c-1.4,0-2.5-1.1-2.5-2.5s1.1-2.5,2.5-2.5s2.5,1.1,2.5,2.5S16.4,14.3,15,14.3z"/>
			</g>
		</g>
	</g>
</g>
<g id="Layer_5" display="none">
	<path id="star3" display="inline" fill="#FFFFFF" d="M20.2,24.6c-0.3,0-0.6-0.1-0.9-0.3L15,21.1l-4.3,3.2c-0.3,0.2-0.6,0.3-0.9,0.3
		c-0.3,0-0.6-0.1-0.9-0.3c-0.5-0.4-0.8-1.1-0.5-1.7l1.7-5.1l-4.4-3.1c-0.5-0.4-0.8-1.1-0.6-1.7c0.2-0.6,0.8-1,1.4-1c0,0,0,0,0,0
		l5.4,0l1.6-5.2c0.2-0.6,0.8-1.1,1.4-1.1c0.7,0,1.2,0.4,1.4,1.1l1.6,5.2l5.4,0c0,0,0,0,0,0c0.7,0,1.2,0.4,1.4,1
		c0.2,0.6,0,1.3-0.6,1.7L20,17.5l1.7,5.1c0.2,0.6,0,1.3-0.5,1.7C20.9,24.5,20.6,24.6,20.2,24.6L20.2,24.6z"/>
</g>
<g id="Layer_6" display="none">
	<g display="inline">
		<path fill="#FFFFFF" d="M24.9,21.7l-4.5-4.5c0.7-1.3,1.1-2.7,1.1-4.2c0-4.7-3.8-8.5-8.5-8.5c-4.7,0-8.5,3.8-8.5,8.5
			s3.8,8.5,8.5,8.5c1.5,0,2.9-0.4,4.2-1.1l4.5,4.5c0.4,0.4,1,0.6,1.6,0.6s1.1-0.2,1.6-0.6c0.4-0.4,0.6-1,0.6-1.6
			C25.5,22.7,25.3,22.1,24.9,21.7z M13,18.2c-2.9,0-5.2-2.3-5.2-5.2c0-2.9,2.3-5.2,5.2-5.2c2.9,0,5.2,2.3,5.2,5.2
			C18.2,15.9,15.9,18.2,13,18.2z"/>
	</g>
</g>
<g id="Layer_3" display="none">
	<path display="inline" fill-rule="evenodd" clip-rule="evenodd" fill="#FFFFFF" d="M21.1,5.7c0,0-0.8-2-1.7-0.9L4.5,14.4
		c0,0-0.7,0.6,0,1.1l15.7,9.7c0,0,0.9,1,0.9-1v-4.7l3.1,0c1.6-0.1,1.6-2,1.6-2l0-5.1c-0.1-1.9-1.7-1.9-1.7-1.9l-2.9,0V5.7z"/>
</g>
</svg>
