<?xml version="1.0" encoding="utf-8"?>
<!-- Generator: Adobe Illustrator 18.1.1, SVG Export Plug-In . SVG Version: 6.00 Build 0)  -->
<!DOCTYPE svg PUBLIC "-//W3C//DTD SVG 1.1//EN" "http://www.w3.org/Graphics/SVG/1.1/DTD/svg11.dtd">
<svg version="1.1" id="Layer_1" xmlns="http://www.w3.org/2000/svg" xmlns:xlink="http://www.w3.org/1999/xlink" x="0px" y="0px"
	 viewBox="0 0 154.9 50" enable-background="new 0 0 154.9 50" xml:space="preserve">
<g>
	<g>
		<g>
			<path fill="#FFFFFF" d="M30.6,49.5h-6.9l18.8-49h6.7L30.6,49.5z"/>
		</g>
		<path fill="#FFFFFF" d="M73.1,40.4h-8.3l-1.5-4.2H51.9l-1.5,4.2H42L53.6,9.4l8.1,0L73.1,40.4z M61.5,29.9l-4-13.1
			c-0.5,1.8-1,3.7-1.5,5.5c-0.7,2.6-1.5,5.1-2.3,7.7H61.5z M89.1,9.4c0.9,0,1.8,0,2.6,0c1.4,0.1,6.3,0.4,8.8,4.8
			c0.4,0.8,1.2,2.6,1.2,5.2c0,3.5-1.4,5.3-2.4,6.3c-0.4,0.4-1,0.8-1.5,1.1c-0.6,0.3-1.2,0.6-2.5,1.1l7.2,12.4h-8.5l-6.2-11.1h-4.8
			v11.1h-7.8V9.4H89.1z M82.9,23.6h6.4c0.3,0,1.2,0,2.1-0.3c2.5-0.8,2.6-3.2,2.6-4c0-4-3.1-4-4.5-4.1h-6.6V23.6z M126.5,9.4v6.1h-8
			v24.9h-7.8l0-24.9l-8.1,0V9.4H126.5z M148.4,18.9c-1.7-1.6-2.9-2.5-5.2-3.2c-0.4-0.1-1.6-0.4-2.9-0.4c-3.2,0-4.6,1.8-4.6,3.2
			c0,0.8,0.4,1.4,0.7,1.6c1.1,1.1,2.8,1.1,5.7,1.5c1.8,0.3,3.5,0.6,5.2,1c1.1,0.2,5.1,1,6.7,4.6c0.2,0.5,0.6,1.7,0.6,3.2
			c0,0.8-0.1,2.6-1.2,4.6c-2.7,4.7-8.3,5.3-9.8,5.5c-1,0.1-2.1,0.2-3.1,0.2c-6.2,0-9.6-2-11.7-3.6c-0.8-0.7-1.2-1.1-2.5-2.5l5.9-3.5
			c0.1,0.1,0.7,0.8,1.4,1.3c2,1.6,5,2.5,7.6,2.5c0.3,0,1.4,0,2.4-0.3c0.2-0.1,3.3-0.9,3.3-3.2c0-2.7-4.1-2.9-6.9-3.2
			c-1.5-0.2-2.9-0.4-4.4-0.8c-2.2-0.6-4.3-1.3-5.9-3.1c-0.3-0.3-0.9-1.1-1.3-2.2c-0.1-0.4-0.4-1.4-0.4-2.6c0-0.3,0-1.2,0.2-2.1
			c0.4-1.9,1.2-3.4,2.7-4.8c1.5-1.4,4.6-3.1,9.7-3.1c1.9,0,6,0.2,10.2,3c1.1,0.7,1.7,1.2,3.4,2.7L148.4,18.9z M12.5,14.8
			c-0.9-0.9-1.6-1.4-2.9-1.9c-0.2,0-0.9-0.2-1.6-0.2c-1.7,0-2.5,1-2.5,1.8c0,0.5,0.2,0.8,0.4,0.9C6.5,16,7.4,16,9,16.3
			c1,0.1,1.9,0.3,2.8,0.6c0.6,0.1,2.8,0.6,3.7,2.6c0.1,0.3,0.3,1,0.3,1.8c0,0.5,0,1.5-0.7,2.7c-1.5,2.7-4.5,3-5.3,3.1
			c-0.6,0.1-1.1,0.1-1.7,0.1c-3.4,0-5.3-1.1-6.4-2c-0.5-0.4-0.7-0.6-1.4-1.4l3.2-2c0.1,0.1,0.4,0.5,0.7,0.7c1.1,0.9,2.7,1.4,4.2,1.4
			c0.2,0,0.8,0,1.3-0.2c0.1,0,1.8-0.5,1.8-1.8c0-1.6-2.3-1.6-3.8-1.8c-0.8-0.1-1.6-0.2-2.4-0.4c-1.2-0.3-2.4-0.8-3.2-1.8
			c-0.2-0.2-0.5-0.6-0.7-1.3c-0.1-0.2-0.2-0.8-0.2-1.5c0-0.1,0-0.7,0.1-1.2c0.2-1.1,0.6-2,1.5-2.7c0.8-0.8,2.5-1.8,5.3-1.8
			c1,0,3.3,0.1,5.6,1.7c0.6,0.4,0.9,0.7,1.9,1.5L12.5,14.8z M31.2,13.3H22v3.3h8.5v3.9H22v6.7l-4.4,0V9.4h13.7V13.3z"/>
	</g>
</g>
</svg>
