<?xml version="1.0" encoding="utf-8"?>
<!-- Generator: Adobe Illustrator 18.1.1, SVG Export Plug-In . SVG Version: 6.00 Build 0)  -->
<!DOCTYPE svg PUBLIC "-//W3C//DTD SVG 1.1//EN" "http://www.w3.org/Graphics/SVG/1.1/DTD/svg11.dtd">
<svg version="1.1" xmlns="http://www.w3.org/2000/svg" xmlns:xlink="http://www.w3.org/1999/xlink" x="0px" y="0px"
	 viewBox="0 0 200 60" enable-background="new 0 0 200 60" xml:space="preserve">
<g id="Layer_1" display="none">
	<g display="inline">
		<g>
			<g>
				<path fill="#FFFFFF" d="M43.8,59.4h-8.3L58.1,0.6h8L43.8,59.4z"/>
			</g>
			<path fill="#FFFFFF" d="M94.8,48.5h-10l-1.8-5H69.3l-1.8,5H57.5l13.9-37.2h9.7L94.8,48.5z M80.9,35.9l-4.8-15.7
				c-0.6,2.2-1.2,4.4-1.8,6.6c-0.8,3.1-1.8,6.1-2.8,9.2h9.4V35.9z M114,11.3c1.1,0,2.2,0,3.1,0c1.7,0.1,7.6,0.5,10.6,5.8
				c0.5,1,1.4,3.1,1.4,6.2c0,4.2-1.7,6.4-2.9,7.6c-0.5,0.5-1.2,1-1.8,1.3c-0.7,0.4-1.4,0.7-3,1.3l8.6,14.9h-10.2L112.4,35h-5.8v13.3
				h-9.4V11.3H114z M106.5,28.3h7.7c0.4,0,1.4,0,2.5-0.4c3-1,3.1-3.8,3.1-4.8c0-4.8-3.7-4.8-5.4-4.9h-7.9V28.3z M158.9,11.3v7.3
				h-9.6v29.9h-9.4V18.6h-9.7v-7.3H158.9z M185.1,22.7c-2-1.9-3.5-3-6.2-3.8c-0.5-0.1-1.9-0.5-3.5-0.5c-3.8,0-5.5,2.2-5.5,3.8
				c0,1,0.5,1.7,0.8,1.9c1.3,1.3,3.4,1.3,6.8,1.8c2.2,0.4,4.2,0.7,6.2,1.2c1.3,0.2,6.1,1.2,8,5.5c0.2,0.6,0.7,2,0.7,3.8
				c0,1-0.1,3.1-1.4,5.5c-3.2,5.6-10,6.4-11.8,6.6c-1.2,0.1-2.5,0.2-3.7,0.2c-7.4,0-11.5-2.4-14-4.3c-1-0.8-1.4-1.3-3-3l7.1-4.2
				c0.1,0.1,0.8,1,1.7,1.6c2.4,1.9,6,3,9.1,3c0.4,0,1.7,0,2.9-0.4c0.2-0.1,4-1.1,4-3.8c0-3.2-4.9-3.5-8.3-3.8
				c-1.8-0.2-3.5-0.5-5.3-1c-2.6-0.7-5.2-1.6-7.1-3.7c-0.4-0.4-1.1-1.3-1.6-2.6c-0.1-0.5-0.5-1.7-0.5-3.1c0-0.4,0-1.4,0.2-2.5
				c0.5-2.3,1.4-4.1,3.2-5.8c1.8-1.7,5.5-3.7,11.6-3.7c2.3,0,7.2,0.2,12.2,3.6c1.3,0.8,2,1.4,4.1,3.2L185.1,22.7z M22.1,17.8
				c-1.1-1.1-1.9-1.7-3.5-2.3c-0.2,0-1.1-0.2-1.9-0.2c-2,0-3,1.2-3,2.2c0,0.6,0.2,1,0.5,1.1c0.7,0.7,1.8,0.7,3.7,1.1
				c1.2,0.1,2.3,0.4,3.4,0.7c0.7,0.1,3.4,0.7,4.4,3.1c0.1,0.4,0.4,1.2,0.4,2.2c0,0.6,0,1.8-0.8,3.2c-1.8,3.2-5.4,3.6-6.4,3.7
				c-0.7,0.1-1.3,0.1-2,0.1c-4.1,0-6.4-1.3-7.7-2.4c-0.6-0.5-0.8-0.7-1.7-1.7l3.8-2.4c0.1,0.1,0.5,0.6,0.8,0.8
				c1.3,1.1,3.2,1.7,5,1.7c0.2,0,1,0,1.6-0.2c0.1,0,2.2-0.6,2.2-2.2c0-1.9-2.8-1.9-4.6-2.2c-1-0.1-1.9-0.2-2.9-0.5
				c-1.4-0.4-2.9-1-3.8-2.2c-0.2-0.2-0.6-0.7-0.8-1.6c-0.1-0.2-0.2-1-0.2-1.8c0-0.1,0-0.8,0.1-1.4c0.2-1.3,0.7-2.4,1.8-3.2
				c1-1,3-2.2,6.4-2.2c1.2,0,4,0.1,6.7,2c0.7,0.5,1.1,0.8,2.3,1.8L22.1,17.8z M44.5,16h-11v4h10.2v4.7H33.5v8h-5.3V11.3h16.4V16
				H44.5z"/>
		</g>
	</g>
</g>
<g id="Layer_2">
	<g>
		<g>
			<g>
				<path fill="#FFFFFF" d="M42.8,59.9h-8.4L57.3,0h8.1L42.8,59.9z"/>
			</g>
			<path fill="#FFFFFF" d="M94.7,48.8H84.6l-1.9-5.2h-14l-1.9,5.2H56.8l14.1-37.9l9.9,0L94.7,48.8z M80.6,35.9l-4.9-16
				c-0.6,2.3-1.2,4.5-1.8,6.7c-0.9,3.1-1.9,6.2-2.8,9.3H80.6z M114.2,10.9c1.1,0,2.1,0,3.2,0.1c1.7,0.1,7.7,0.5,10.7,5.9
				c0.5,1,1.5,3.2,1.5,6.3c0,4.2-1.7,6.5-3,7.7c-0.5,0.5-1.2,1-1.8,1.4c-0.7,0.4-1.5,0.7-3.1,1.3l8.8,15.2h-10.4l-7.6-13.5h-5.9
				v13.5h-9.6V10.9H114.2z M106.6,28.3h7.8c0.4,0,1.5,0,2.5-0.4c3.1-1,3.2-3.9,3.2-4.9c0-4.9-3.8-4.9-5.5-5.1h-8.1V28.3z
				 M159.9,10.9v7.5h-9.8v30.5h-9.6l0-30.5l-9.9,0v-7.5H159.9z M186.7,22.5c-2.1-2-3.5-3.1-6.4-4c-0.5-0.1-1.9-0.5-3.5-0.5
				c-3.9,0-5.6,2.2-5.6,3.9c0,1,0.5,1.6,0.8,1.9c1.3,1.3,3.4,1.3,6.9,1.8c2.1,0.3,4.2,0.7,6.3,1.2c1.3,0.3,6.2,1.2,8.2,5.6
				c0.3,0.7,0.8,2.1,0.8,3.9c0,1-0.1,3.2-1.5,5.7c-3.3,5.7-10.1,6.5-11.9,6.7c-1.2,0.2-2.5,0.3-3.8,0.3c-7.5,0-11.8-2.4-14.3-4.4
				c-1-0.8-1.5-1.3-3-3l7.2-4.3c0.2,0.2,0.9,1,1.7,1.5c2.5,2,6.1,3,9.3,3c0.4,0,1.7-0.1,3-0.4c0.3-0.1,4-1.1,4-3.9
				c0-3.4-5.1-3.5-8.4-3.9c-1.8-0.3-3.6-0.5-5.4-0.9c-2.7-0.7-5.3-1.6-7.2-3.8c-0.4-0.4-1.1-1.3-1.6-2.7c-0.2-0.5-0.5-1.7-0.5-3.2
				c0-0.3,0.1-1.5,0.2-2.5c0.4-2.3,1.5-4.2,3.3-5.8c1.9-1.7,5.6-3.8,11.8-3.8c2.3,0,7.4,0.3,12.5,3.6c1.3,0.8,2,1.4,4.2,3.2
				L186.7,22.5z M20.7,17.5c-1.1-1.1-1.9-1.8-3.5-2.3c-0.3-0.1-1.1-0.3-1.9-0.3c-2.1,0-3.1,1.2-3.1,2.2c0,0.6,0.3,0.9,0.4,1.1
				c0.7,0.8,1.9,0.7,3.8,1c1.2,0.2,2.3,0.4,3.5,0.7c0.7,0.1,3.4,0.7,4.5,3.2c0.2,0.4,0.4,1.2,0.4,2.2c0,0.6-0.1,1.8-0.8,3.2
				c-1.8,3.3-5.5,3.7-6.5,3.8c-0.7,0.1-1.4,0.2-2.1,0.2c-4.1,0-6.4-1.4-7.8-2.5c-0.6-0.5-0.8-0.8-1.6-1.7l3.9-2.5
				c0.1,0.1,0.5,0.6,0.9,0.9c1.4,1.1,3.3,1.7,5.1,1.7c0.2,0,0.9,0,1.6-0.2c0.1-0.1,2.2-0.6,2.2-2.2c0-1.9-2.8-2-4.6-2.2
				c-1-0.2-2-0.3-2.9-0.5c-1.5-0.4-2.9-0.9-3.9-2.2c-0.2-0.2-0.6-0.8-0.9-1.5c-0.1-0.3-0.3-1-0.3-1.8c0-0.2,0-0.9,0.1-1.4
				c0.2-1.3,0.8-2.4,1.8-3.3c1-1,3.1-2.2,6.5-2.2c1.3,0,4,0.1,6.8,2.1c0.7,0.5,1.1,0.8,2.3,1.9L20.7,17.5z M43.5,15.7H32.2v4h10.4
				v4.8H32.2v8.2l-5.4,0V10.9h16.7V15.7z"/>
		</g>
		<g>
			<path fill="#FFFFFF" d="M57.7,58.5c-1.1,0-1.5-1.1-1.5-2.5c0-1.4,0.5-2.5,1.5-2.5c0.7,0,1.2,0.4,1.4,1.2L58.4,55
				c-0.1-0.5-0.3-0.6-0.6-0.6C57.2,54.4,57,55,57,56c0,1,0.2,1.6,0.7,1.6c0.5,0,0.7-0.3,0.7-1h-0.7v-0.8h1.5v0.8
				C59.2,57.8,58.7,58.5,57.7,58.5z"/>
			<path fill="#FFFFFF" d="M63.5,58.5c-1,0-1.4-0.8-1.4-2v-2.9h0.8v2.9c0,0.8,0.2,1.1,0.6,1.1c0.4,0,0.5-0.3,0.5-1.1v-2.9h0.8v2.9
				C64.8,57.8,64.5,58.5,63.5,58.5z"/>
			<path fill="#FFFFFF" d="M67.9,58.4v-4.8h0.8v4.8H67.9z"/>
			<path fill="#FFFFFF" d="M72.9,58.4h-1v-4.8h1c1.1,0,1.8,0.7,1.8,2.4C74.7,57.7,74,58.4,72.9,58.4z M72.9,54.4h-0.2v3.2h0.2
				c0.7,0,0.9-0.7,0.9-1.6S73.7,54.4,72.9,54.4z"/>
			<path fill="#FFFFFF" d="M77.6,58.4v-4.8H80v0.8h-1.5v1h1v0.8h-1v1.3H80v0.8H77.6z"/>
			<path fill="#FFFFFF" d="M88.2,54.4v4h-0.8v-4h-1v-0.8h2.7v0.8H88.2z"/>
			<path fill="#FFFFFF" d="M93.1,58.5c-1.1,0-1.5-1.1-1.5-2.5c0-1.4,0.5-2.5,1.5-2.5c1.1,0,1.5,1.1,1.5,2.5
				C94.7,57.4,94.2,58.5,93.1,58.5z M93.1,54.4c-0.5,0-0.7,0.6-0.7,1.6c0,1,0.2,1.6,0.7,1.6c0.5,0,0.7-0.6,0.7-1.6
				C93.8,55,93.6,54.4,93.1,54.4z"/>
			<path fill="#FFFFFF" d="M102.4,58.5c-0.6,0-1.1-0.3-1.4-0.8l0.6-0.6c0.3,0.4,0.6,0.6,0.8,0.6c0.3,0,0.5-0.2,0.5-0.5
				c0-0.3-0.2-0.5-0.7-0.8c-0.7-0.4-1.1-0.7-1.1-1.5c0-0.7,0.5-1.3,1.3-1.3c0.6,0,0.9,0.2,1.3,0.7l-0.5,0.6
				c-0.3-0.3-0.4-0.4-0.7-0.4c-0.3,0-0.4,0.2-0.4,0.4c0,0.3,0.2,0.5,0.7,0.8c0.8,0.4,1.1,0.8,1.1,1.6
				C103.8,57.9,103.3,58.5,102.4,58.5z"/>
			<path fill="#FFFFFF" d="M108.7,58.4l-0.2-1h-1l-0.2,1h-0.8l1.2-4.8h0.8l1.2,4.8H108.7z M108.1,56c-0.1-0.4-0.2-0.9-0.2-1.2
				c0,0.2-0.1,0.8-0.2,1.2l-0.1,0.6h0.7L108.1,56z"/>
			<path fill="#FFFFFF" d="M114.3,58.4l-0.8-2.2c-0.1-0.3-0.3-0.7-0.3-1c0,0.3,0,0.8,0,1.1v2h-0.7v-4.8h0.8l0.8,2.1
				c0.1,0.3,0.3,0.7,0.4,1c0-0.3,0-0.8,0-1.1v-2h0.8v4.8H114.3z"/>
			<path fill="#FFFFFF" d="M122.7,54.4v1.1h1.1v0.8h-1.1v2.1h-0.8v-4.8h2.4v0.8H122.7z"/>
			<path fill="#FFFFFF" d="M129,58.4l-0.7-1.8H128v1.8h-0.8v-4.8h1.2c0.9,0,1.5,0.5,1.5,1.5c0,0.7-0.3,1.1-0.8,1.3l0.8,2H129z
				 M128.4,54.4H128v1.3h0.4c0.4,0,0.6-0.2,0.6-0.7C129.1,54.7,128.9,54.4,128.4,54.4z"/>
			<path fill="#FFFFFF" d="M134.8,58.4l-0.2-1h-1l-0.2,1h-0.8l1.2-4.8h0.8l1.2,4.8H134.8z M134.2,56c-0.1-0.4-0.2-0.9-0.2-1.2
				c0,0.2-0.1,0.8-0.2,1.2l-0.1,0.6h0.7L134.2,56z"/>
			<path fill="#FFFFFF" d="M140.4,58.4l-0.8-2.2c-0.1-0.3-0.3-0.7-0.3-1c0,0.3,0,0.8,0,1.1v2h-0.7v-4.8h0.8l0.8,2.1
				c0.1,0.3,0.3,0.7,0.4,1c0-0.3,0-0.8,0-1.1v-2h0.8v4.8H140.4z"/>
			<path fill="#FFFFFF" d="M145.6,58.5c-1,0-1.5-1.1-1.5-2.5c0-1.4,0.5-2.5,1.5-2.5c0.8,0,1.1,0.5,1.3,1.2l-0.8,0.3
				c-0.1-0.4-0.2-0.6-0.5-0.6c-0.4,0-0.7,0.6-0.7,1.6c0,1,0.2,1.6,0.7,1.6c0.3,0,0.4-0.2,0.6-0.7l0.7,0.3
				C146.7,58.1,146.3,58.5,145.6,58.5z"/>
			<path fill="#FFFFFF" d="M149.8,58.4v-4.8h0.8v4.8H149.8z"/>
			<path fill="#FFFFFF" d="M154.9,58.5c-0.6,0-1.1-0.3-1.4-0.8l0.6-0.6c0.3,0.4,0.6,0.6,0.8,0.6c0.3,0,0.5-0.2,0.5-0.5
				c0-0.3-0.2-0.5-0.7-0.8c-0.7-0.4-1.1-0.7-1.1-1.5c0-0.7,0.5-1.3,1.3-1.3c0.6,0,0.9,0.2,1.3,0.7l-0.5,0.6
				c-0.3-0.3-0.4-0.4-0.7-0.4c-0.3,0-0.4,0.2-0.4,0.4c0,0.3,0.2,0.5,0.7,0.8c0.8,0.4,1.1,0.8,1.1,1.6
				C156.2,57.9,155.7,58.5,154.9,58.5z"/>
			<path fill="#FFFFFF" d="M160.4,58.5c-1,0-1.5-1.1-1.5-2.5c0-1.4,0.5-2.5,1.5-2.5c0.8,0,1.1,0.5,1.3,1.2l-0.8,0.3
				c-0.1-0.4-0.2-0.6-0.5-0.6c-0.4,0-0.7,0.6-0.7,1.6c0,1,0.2,1.6,0.7,1.6c0.3,0,0.4-0.2,0.6-0.7l0.7,0.3
				C161.5,58.1,161.1,58.5,160.4,58.5z"/>
			<path fill="#FFFFFF" d="M165.8,58.5c-1.1,0-1.5-1.1-1.5-2.5c0-1.4,0.5-2.5,1.5-2.5c1.1,0,1.5,1.1,1.5,2.5
				C167.4,57.4,166.9,58.5,165.8,58.5z M165.8,54.4c-0.5,0-0.7,0.6-0.7,1.6c0,1,0.2,1.6,0.7,1.6c0.5,0,0.7-0.6,0.7-1.6
				C166.5,55,166.3,54.4,165.8,54.4z"/>
			<path fill="#FFFFFF" d="M176.1,58.4l-0.2-1h-1l-0.2,1h-0.8l1.2-4.8h0.8l1.2,4.8H176.1z M175.6,56c-0.1-0.4-0.2-0.9-0.2-1.2
				c0,0.2-0.1,0.8-0.2,1.2l-0.1,0.6h0.7L175.6,56z"/>
			<path fill="#FFFFFF" d="M181.6,58.4l-0.7-1.8h-0.3v1.8h-0.8v-4.8h1.2c0.9,0,1.5,0.5,1.5,1.5c0,0.7-0.3,1.1-0.8,1.3l0.8,2H181.6z
				 M181,54.4h-0.4v1.3h0.4c0.4,0,0.6-0.2,0.6-0.7C181.7,54.7,181.5,54.4,181,54.4z"/>
			<path fill="#FFFFFF" d="M186.8,54.4v4H186v-4h-1v-0.8h2.7v0.8H186.8z"/>
			<path fill="#FFFFFF" d="M191.6,58.5c-0.6,0-1.1-0.3-1.4-0.8l0.6-0.6c0.3,0.4,0.6,0.6,0.8,0.6c0.3,0,0.5-0.2,0.5-0.5
				c0-0.3-0.2-0.5-0.7-0.8c-0.7-0.4-1.1-0.7-1.1-1.5c0-0.7,0.5-1.3,1.3-1.3c0.6,0,0.9,0.2,1.3,0.7l-0.5,0.6
				c-0.3-0.3-0.4-0.4-0.7-0.4c-0.3,0-0.4,0.2-0.4,0.4c0,0.3,0.2,0.5,0.7,0.8c0.8,0.4,1.1,0.8,1.1,1.6
				C193,57.9,192.4,58.5,191.6,58.5z"/>
		</g>
	</g>
</g>
</svg>
