<?xml version="1.0" encoding="utf-8"?>
<!-- Generator: Adobe Illustrator 18.1.1, SVG Export Plug-In . SVG Version: 6.00 Build 0)  -->
<!DOCTYPE svg PUBLIC "-//W3C//DTD SVG 1.1//EN" "http://www.w3.org/Graphics/SVG/1.1/DTD/svg11.dtd">
<svg version="1.1" id="Layer_1" xmlns="http://www.w3.org/2000/svg" xmlns:xlink="http://www.w3.org/1999/xlink" x="0px" y="0px"
	 viewBox="38.1 0 63.9 60" enable-background="new 38.1 0 63.9 60" xml:space="preserve">
<g opacity="0.4">
	<circle fill="none" stroke="#FFFFFF" stroke-width="2.5" stroke-miterlimit="10" cx="69.8" cy="30.6" r="17.5"/>
	<g>
		<g>
			<g>
				<path fill="#FFFFFF" d="M67.6,39.7h-2.5l6.9-18h2.5L67.6,39.7z"/>
			</g>
			<path fill="#FFFFFF" d="M83.2,36.3h-3.1l-0.6-1.5h-4.2l-0.6,1.5h-3.1l4.3-11.4h3L83.2,36.3z M79,32.5l-1.5-4.8
				c-0.2,0.7-0.4,1.4-0.6,2c-0.3,1-0.6,1.9-0.8,2.8L79,32.5L79,32.5z M60.9,26.9c-0.3-0.3-0.6-0.5-1.1-0.7c-0.1,0-0.3-0.1-0.6-0.1
				c-0.6,0-0.9,0.4-0.9,0.7c0,0.2,0.1,0.3,0.1,0.3c0.2,0.2,0.6,0.2,1.1,0.3c0.4,0,0.7,0.1,1,0.2c0.2,0,1,0.2,1.4,1
				c0,0.1,0.1,0.4,0.1,0.7c0,0.2,0,0.6-0.3,1c-0.6,1-1.7,1.1-1.9,1.1c-0.2,0-0.4,0-0.6,0c-1.3,0-1.9-0.4-2.4-0.7
				c-0.2-0.1-0.3-0.2-0.5-0.5l1.2-0.7c0,0,0.1,0.2,0.3,0.3c0.4,0.3,1,0.5,1.5,0.5c0.1,0,0.3,0,0.5-0.1c0,0,0.7-0.2,0.7-0.7
				c0-0.6-0.8-0.6-1.4-0.7c-0.3,0-0.6-0.1-0.9-0.1c-0.4-0.1-0.9-0.3-1.2-0.7c-0.1-0.1-0.2-0.2-0.3-0.5c0-0.1-0.1-0.3-0.1-0.6
				c0,0,0-0.3,0-0.4c0.1-0.4,0.2-0.7,0.6-1c0.3-0.3,0.9-0.7,1.9-0.7c0.4,0,1.2,0,2.1,0.6c0.2,0.1,0.3,0.3,0.7,0.6L60.9,26.9z
				 M67.8,26.3h-3.4v1.2h3.1V29h-3.1v2.5h-1.6v-6.5h5L67.8,26.3L67.8,26.3z"/>
		</g>
	</g>
</g>
</svg>
