<?xml version="1.0" encoding="utf-8"?>
<!-- Generator: Adobe Illustrator 18.1.1, SVG Export Plug-In . SVG Version: 6.00 Build 0)  -->
<!DOCTYPE svg PUBLIC "-//W3C//DTD SVG 1.1//EN" "http://www.w3.org/Graphics/SVG/1.1/DTD/svg11.dtd">
<svg version="1.1" xmlns="http://www.w3.org/2000/svg" xmlns:xlink="http://www.w3.org/1999/xlink" x="0px" y="0px"
	 viewBox="-76.5 7.5 346.5 45" enable-background="new -76.5 7.5 346.5 45" xml:space="preserve">
<g id="Layer_1" display="none">
	<g display="inline">
		<g>
			<g>
				<path fill="#FFFFFF" d="M43.8,59.4h-8.3L58.1,0.6h8L43.8,59.4z"/>
			</g>
			<path fill="#FFFFFF" d="M94.8,48.5h-10l-1.8-5H69.3l-1.8,5H57.5l13.9-37.2h9.7L94.8,48.5z M80.9,35.9l-4.8-15.7
				c-0.6,2.2-1.2,4.4-1.8,6.6c-0.8,3.1-1.8,6.1-2.8,9.2h9.4V35.9z M114,11.3c1.1,0,2.2,0,3.1,0c1.7,0.1,7.6,0.5,10.6,5.8
				c0.5,1,1.4,3.1,1.4,6.2c0,4.2-1.7,6.4-2.9,7.6c-0.5,0.5-1.2,1-1.8,1.3c-0.7,0.4-1.4,0.7-3,1.3l8.6,14.9h-10.2L112.4,35h-5.8v13.3
				h-9.4V11.3H114z M106.5,28.3h7.7c0.4,0,1.4,0,2.5-0.4c3-1,3.1-3.8,3.1-4.8c0-4.8-3.7-4.8-5.4-4.9h-7.9V28.3z M158.9,11.3v7.3
				h-9.6v29.9h-9.4V18.6h-9.7v-7.3H158.9z M185.1,22.7c-2-1.9-3.5-3-6.2-3.8c-0.5-0.1-1.9-0.5-3.5-0.5c-3.8,0-5.5,2.2-5.5,3.8
				c0,1,0.5,1.7,0.8,1.9c1.3,1.3,3.4,1.3,6.8,1.8c2.2,0.4,4.2,0.7,6.2,1.2c1.3,0.2,6.1,1.2,8,5.5c0.2,0.6,0.7,2,0.7,3.8
				c0,1-0.1,3.1-1.4,5.5c-3.2,5.6-10,6.4-11.8,6.6c-1.2,0.1-2.5,0.2-3.7,0.2c-7.4,0-11.5-2.4-14-4.3c-1-0.8-1.4-1.3-3-3l7.1-4.2
				c0.1,0.1,0.8,1,1.7,1.6c2.4,1.9,6,3,9.1,3c0.4,0,1.7,0,2.9-0.4c0.2-0.1,4-1.1,4-3.8c0-3.2-4.9-3.5-8.3-3.8
				c-1.8-0.2-3.5-0.5-5.3-1c-2.6-0.7-5.2-1.6-7.1-3.7c-0.4-0.4-1.1-1.3-1.6-2.6c-0.1-0.5-0.5-1.7-0.5-3.1c0-0.4,0-1.4,0.2-2.5
				c0.5-2.3,1.4-4.1,3.2-5.8c1.8-1.7,5.5-3.7,11.6-3.7c2.3,0,7.2,0.2,12.2,3.6c1.3,0.8,2,1.4,4.1,3.2L185.1,22.7z M22.1,17.8
				c-1.1-1.1-1.9-1.7-3.5-2.3c-0.2,0-1.1-0.2-1.9-0.2c-2,0-3,1.2-3,2.2c0,0.6,0.2,1,0.5,1.1c0.7,0.7,1.8,0.7,3.7,1.1
				c1.2,0.1,2.3,0.4,3.4,0.7c0.7,0.1,3.4,0.7,4.4,3.1c0.1,0.4,0.4,1.2,0.4,2.2c0,0.6,0,1.8-0.8,3.2c-1.8,3.2-5.4,3.6-6.4,3.7
				c-0.7,0.1-1.3,0.1-2,0.1c-4.1,0-6.4-1.3-7.7-2.4c-0.6-0.5-0.8-0.7-1.7-1.7l3.8-2.4c0.1,0.1,0.5,0.6,0.8,0.8
				c1.3,1.1,3.2,1.7,5,1.7c0.2,0,1,0,1.6-0.2c0.1,0,2.2-0.6,2.2-2.2c0-1.9-2.8-1.9-4.6-2.2c-1-0.1-1.9-0.2-2.9-0.5
				c-1.4-0.4-2.9-1-3.8-2.2c-0.2-0.2-0.6-0.7-0.8-1.6c-0.1-0.2-0.2-1-0.2-1.8c0-0.1,0-0.8,0.1-1.4c0.2-1.3,0.7-2.4,1.8-3.2
				c1-1,3-2.2,6.4-2.2c1.2,0,4,0.1,6.7,2c0.7,0.5,1.1,0.8,2.3,1.8L22.1,17.8z M44.5,16h-11v4h10.2v4.7H33.5v8h-5.3V11.3h16.4V16
				H44.5z"/>
		</g>
	</g>
</g>
<g id="Layer_2">
	<g>
		<path fill="#FFFFFF" d="M-57.3,36.9c-2.5,0-3.6-2.6-3.6-5.9c0-3.3,1.1-5.9,3.6-5.9c1.6,0,2.8,0.9,3.3,2.9l-1.8,0.6
			c-0.3-1.1-0.8-1.5-1.5-1.5c-1.2,0-1.6,1.4-1.6,3.8c0,2.4,0.5,3.9,1.6,3.9c1.2,0,1.5-0.6,1.5-2.3h-1.5v-1.9h3.4v2
			C-53.9,35.3-55,36.9-57.3,36.9z"/>
		<path fill="#FFFFFF" d="M-43.8,36.9c-2.3,0-3.2-1.9-3.2-4.7v-6.9h1.9v6.9c0,2,0.4,2.7,1.3,2.7c0.9,0,1.3-0.7,1.3-2.7v-6.9h1.9v6.8
			C-40.6,35.1-41.4,36.9-43.8,36.9z"/>
		<path fill="#FFFFFF" d="M-33.3,36.7V25.3h1.9v11.4H-33.3z"/>
		<path fill="#FFFFFF" d="M-21.6,36.7H-24V25.3h2.4c2.6,0,4.1,1.7,4.1,5.7C-17.4,35-19.1,36.7-21.6,36.7z M-21.6,27.3h-0.5v7.4h0.5
			c1.7,0,2.2-1.6,2.2-3.7S-19.8,27.3-21.6,27.3z"/>
		<path fill="#FFFFFF" d="M-10.6,36.7V25.3H-5v2h-3.6v2.4h2.4v1.9h-2.4v3.2h3.8v2H-10.6z"/>
		<path fill="#FFFFFF" d="M14.4,27.3v9.4h-1.9v-9.4h-2.2v-2h6.4v2H14.4z"/>
		<path fill="#FFFFFF" d="M26,36.9c-2.5,0-3.6-2.6-3.6-5.9c0-3.3,1.1-5.9,3.6-5.9c2.5,0,3.6,2.6,3.6,5.9
			C29.6,34.3,28.5,36.9,26,36.9z M26,27.2c-1.2,0-1.6,1.4-1.6,3.8c0,2.4,0.5,3.9,1.6,3.9c1.1,0,1.6-1.4,1.6-3.8
			C27.6,28.6,27.2,27.2,26,27.2z"/>
		<path fill="#FFFFFF" d="M47.9,36.9c-1.5,0-2.5-0.8-3.2-1.8l1.3-1.5c0.7,0.9,1.3,1.3,2,1.3c0.8,0,1.2-0.5,1.2-1.2
			c0-0.7-0.4-1.2-1.7-1.9c-1.6-0.9-2.6-1.7-2.6-3.6c0-1.7,1.2-3.1,3-3.1c1.3,0,2.2,0.6,3,1.6l-1.3,1.4c-0.6-0.7-1-1-1.7-1
			c-0.6,0-1,0.4-1,1c0,0.7,0.4,1.1,1.5,1.8c1.9,1.1,2.7,1.8,2.7,3.8C51.1,35.5,49.9,36.9,47.9,36.9z"/>
		<path fill="#FFFFFF" d="M62.6,36.7L62,34.3h-2.4l-0.5,2.4h-2l2.8-11.4h1.9l2.8,11.4H62.6z M61.3,31.1c-0.2-0.9-0.4-2.2-0.5-2.8
			c-0.1,0.6-0.3,1.8-0.5,2.7L60,32.4h1.6L61.3,31.1z"/>
		<path fill="#FFFFFF" d="M75.8,36.7l-2-5.1c-0.3-0.7-0.6-1.6-0.8-2.3c0,0.7,0,1.9,0,2.6v4.8h-1.8V25.3h1.9l1.9,5
			c0.3,0.7,0.6,1.7,0.9,2.4c0-0.7-0.1-1.9-0.1-2.7v-4.7h1.8v11.4H75.8z"/>
		<path fill="#FFFFFF" d="M95.6,27.3v2.5h2.5v2h-2.5v4.9h-1.9V25.3h5.7v2H95.6z"/>
		<path fill="#FFFFFF" d="M110.4,36.7l-1.7-4.3h-0.6v4.3h-1.9V25.3h2.9c2.1,0,3.5,1.2,3.5,3.5c0,1.6-0.8,2.6-1.8,3.1l1.9,4.7H110.4z
			 M108.9,27.3h-0.9v3.2h1c1,0,1.5-0.5,1.5-1.6C110.5,27.9,110.1,27.3,108.9,27.3z"/>
		<path fill="#FFFFFF" d="M124,36.7l-0.5-2.4H121l-0.5,2.4h-2l2.8-11.4h1.9l2.8,11.4H124z M122.8,31.1c-0.2-0.9-0.4-2.2-0.5-2.8
			c-0.1,0.6-0.3,1.8-0.5,2.7l-0.3,1.4h1.6L122.8,31.1z"/>
		<path fill="#FFFFFF" d="M137.2,36.7l-2-5.1c-0.3-0.7-0.6-1.6-0.8-2.3c0,0.7,0,1.9,0,2.6v4.8h-1.8V25.3h1.9l1.9,5
			c0.3,0.7,0.6,1.7,0.9,2.4c0-0.7-0.1-1.9-0.1-2.7v-4.7h1.8v11.4H137.2z"/>
		<path fill="#FFFFFF" d="M149.5,36.9c-2.4,0-3.5-2.6-3.5-5.9c0-3.3,1.1-5.9,3.5-5.9c1.8,0,2.6,1.2,3.1,2.9l-1.8,0.6
			c-0.3-1-0.6-1.5-1.3-1.5c-1,0-1.5,1.4-1.5,3.8c0,2.4,0.5,3.9,1.6,3.9c0.7,0,1-0.4,1.4-1.6l1.7,0.7
			C152.1,35.8,151.1,36.9,149.5,36.9z"/>
		<path fill="#FFFFFF" d="M159.4,36.7V25.3h1.9v11.4H159.4z"/>
		<path fill="#FFFFFF" d="M171.3,36.9c-1.5,0-2.5-0.8-3.2-1.8l1.3-1.5c0.7,0.9,1.3,1.3,2,1.3c0.8,0,1.2-0.5,1.2-1.2
			c0-0.7-0.4-1.2-1.7-1.9c-1.6-0.9-2.6-1.7-2.6-3.6c0-1.7,1.2-3.1,3-3.1c1.3,0,2.2,0.6,3,1.6l-1.3,1.4c-0.6-0.7-1-1-1.7-1
			c-0.6,0-1,0.4-1,1c0,0.7,0.4,1.1,1.5,1.8c1.9,1.1,2.7,1.8,2.7,3.8C174.5,35.5,173.3,36.9,171.3,36.9z"/>
		<path fill="#FFFFFF" d="M184.3,36.9c-2.4,0-3.5-2.6-3.5-5.9c0-3.3,1.1-5.9,3.5-5.9c1.8,0,2.6,1.2,3.1,2.9l-1.8,0.6
			c-0.3-1-0.6-1.5-1.3-1.5c-1,0-1.5,1.4-1.5,3.8c0,2.4,0.5,3.9,1.6,3.9c0.7,0,1-0.4,1.4-1.6l1.7,0.7C186.9,35.8,186,36.9,184.3,36.9
			z"/>
		<path fill="#FFFFFF" d="M197.1,36.9c-2.5,0-3.6-2.6-3.6-5.9c0-3.3,1.1-5.9,3.6-5.9c2.5,0,3.6,2.6,3.6,5.9
			C200.7,34.3,199.6,36.9,197.1,36.9z M197.1,27.2c-1.2,0-1.6,1.4-1.6,3.8c0,2.4,0.5,3.9,1.6,3.9c1.1,0,1.6-1.4,1.6-3.8
			C198.7,28.6,198.2,27.2,197.1,27.2z"/>
		<path fill="#FFFFFF" d="M221.2,36.7l-0.5-2.4h-2.4l-0.5,2.4h-2l2.8-11.4h1.9l2.8,11.4H221.2z M220,31.1c-0.2-0.9-0.4-2.2-0.5-2.8
			c-0.1,0.6-0.3,1.8-0.5,2.7l-0.3,1.4h1.6L220,31.1z"/>
		<path fill="#FFFFFF" d="M234.2,36.7l-1.7-4.3h-0.6v4.3h-1.9V25.3h2.9c2.1,0,3.5,1.2,3.5,3.5c0,1.6-0.8,2.6-1.8,3.1l1.9,4.7H234.2z
			 M232.7,27.3h-0.9v3.2h1c1,0,1.5-0.5,1.5-1.6C234.3,27.9,233.9,27.3,232.7,27.3z"/>
		<path fill="#FFFFFF" d="M246.4,27.3v9.4h-1.9v-9.4h-2.2v-2h6.4v2H246.4z"/>
		<path fill="#FFFFFF" d="M257.6,36.9c-1.5,0-2.5-0.8-3.2-1.8l1.3-1.5c0.7,0.9,1.3,1.3,2,1.3c0.8,0,1.2-0.5,1.2-1.2
			c0-0.7-0.4-1.2-1.7-1.9c-1.6-0.9-2.6-1.7-2.6-3.6c0-1.7,1.2-3.1,3-3.1c1.3,0,2.2,0.6,3,1.6l-1.3,1.4c-0.6-0.7-1-1-1.7-1
			c-0.6,0-1,0.4-1,1c0,0.7,0.4,1.1,1.5,1.8c1.9,1.1,2.7,1.8,2.7,3.8C260.9,35.5,259.7,36.9,257.6,36.9z"/>
	</g>
</g>
</svg>
